<?xml version="1.0" encoding="UTF-8"?>
<svg width="352px" height="238px" viewBox="0 0 352 238" version="1.1" xmlns="http://www.w3.org/2000/svg" xmlns:xlink="http://www.w3.org/1999/xlink">
    <!-- Generator: Sketch 42 (36781) - http://www.bohemiancoding.com/sketch -->
    <title>kenvak</title>
    <desc>Created with Sketch.</desc>
    <defs></defs>
    <g id="Logo" stroke="none" stroke-width="1" fill="none" fill-rule="evenodd">
        <g id="kenvak-copy-6" transform="translate(-74.000000, -131.000000)" fill="#252429">
            <path d="M243.41052,207.571142 L208.51732,132.742435 C207.810308,131.226243 206.027871,130.582297 204.526086,131.282591 L200.901453,132.972785 C199.404518,133.670818 198.75173,135.462074 199.454242,136.968617 L232.37674,207.571142 L243.41052,207.571142 Z M280.715132,287.571142 L315.854045,362.926783 C316.556557,364.433327 315.903769,366.224583 314.406834,366.922616 L310.782201,368.61281 C309.280416,369.313104 307.497979,368.669158 306.790967,367.152966 L269.681353,287.571142 L280.715132,287.571142 Z M74,270.843142 L74,223.899142 C74,222.963142 74.72,222.171142 75.728,222.171142 L82.064,222.171142 C83,222.171142 83.792,222.963142 83.792,223.899142 L83.792,243.339142 L101.936,222.891142 C102.224,222.531142 102.656,222.171142 103.304,222.171142 L110.504,222.171142 C111.872,222.171142 112.592,223.683142 111.656,224.763142 L92.864,245.931142 L113.024,270.051142 C113.744,270.987142 113.168,272.571142 111.728,272.571142 L103.88,272.571142 C103.16,272.571142 102.728,272.283142 102.584,272.067142 L83.792,248.883142 L83.792,270.843142 C83.792,271.779142 83,272.571142 82.064,272.571142 L75.728,272.571142 C74.72,272.571142 74,271.779142 74,270.843142 Z M135.944,271.203142 L135.944,223.539142 C135.944,222.819142 136.52,222.171142 137.312,222.171142 L166.616,222.171142 C167.408,222.171142 167.984,222.819142 167.984,223.539142 L167.984,229.443142 C167.984,230.163142 167.408,230.811142 166.616,230.811142 L145.304,230.811142 L145.304,242.619142 L163.088,242.619142 C163.808,242.619142 164.456,243.267142 164.456,243.987142 L164.456,249.963142 C164.456,250.755142 163.808,251.331142 163.088,251.331142 L145.304,251.331142 L145.304,263.931142 L166.616,263.931142 C167.408,263.931142 167.984,264.579142 167.984,265.299142 L167.984,271.203142 C167.984,271.923142 167.408,272.571142 166.616,272.571142 L137.312,272.571142 C136.52,272.571142 135.944,271.923142 135.944,271.203142 Z M193.28,271.203142 L193.28,222.747142 C193.28,222.027142 193.928,221.451142 194.648,221.451142 L196.448,221.451142 L226.4,253.275142 L226.472,253.275142 L226.472,223.539142 C226.472,222.819142 227.048,222.171142 227.84,222.171142 L234.464,222.171142 C235.184,222.171142 235.832,222.819142 235.832,223.539142 L235.832,271.995142 C235.832,272.715142 235.184,273.291142 234.464,273.291142 L232.736,273.291142 L202.64,240.243142 L202.568,240.243142 L202.568,271.203142 C202.568,271.923142 201.992,272.571142 201.2,272.571142 L194.648,272.571142 C193.928,272.571142 193.28,271.923142 193.28,271.203142 Z M279.632,272.499142 L257.384,224.043142 C256.952,223.107142 257.528,222.171142 258.608,222.171142 L265.952,222.171142 C266.6,222.171142 267.032,222.603142 267.176,222.963142 L281,253.923142 L281.504,253.923142 L295.328,222.963142 C295.472,222.603142 295.904,222.171142 296.552,222.171142 L303.896,222.171142 C304.976,222.171142 305.552,223.107142 305.12,224.043142 L282.8,272.499142 C282.584,272.931142 282.224,273.291142 281.576,273.291142 L280.856,273.291142 C280.208,273.291142 279.848,272.931142 279.632,272.499142 Z M317.744,272.571142 C316.664,272.571142 316.088,271.635142 316.52,270.699142 L338.912,222.243142 C339.128,221.811142 339.488,221.451142 340.136,221.451142 L340.856,221.451142 C341.576,221.451142 341.864,221.811142 342.08,222.243142 L364.256,270.699142 C364.688,271.635142 364.112,272.571142 363.032,272.571142 L356.768,272.571142 C355.688,272.571142 355.184,272.139142 354.68,271.131142 L351.152,263.355142 L329.624,263.355142 L326.096,271.131142 C325.808,271.851142 325.16,272.571142 324.008,272.571142 L317.744,272.571142 Z M333.152,255.363142 L347.624,255.363142 L340.424,239.523142 L340.208,239.523142 L333.152,255.363142 Z M385.808,270.843142 L385.808,223.899142 C385.808,222.963142 386.528,222.171142 387.536,222.171142 L393.872,222.171142 C394.808,222.171142 395.6,222.963142 395.6,223.899142 L395.6,243.339142 L413.744,222.891142 C414.032,222.531142 414.464,222.171142 415.112,222.171142 L422.312,222.171142 C423.68,222.171142 424.4,223.683142 423.464,224.763142 L404.672,245.931142 L424.832,270.051142 C425.552,270.987142 424.976,272.571142 423.536,272.571142 L415.688,272.571142 C414.968,272.571142 414.536,272.283142 414.392,272.067142 L395.6,248.883142 L395.6,270.843142 C395.6,271.779142 394.808,272.571142 393.872,272.571142 L387.536,272.571142 C386.528,272.571142 385.808,271.779142 385.808,270.843142 Z" id="kenvak"></path>
        </g>
    </g>
</svg>